<svg xmlns="http://www.w3.org/2000/svg" width="1200" height="640" viewBox="0 0 1200 640" role="img" aria-labelledby="title desc">
  <title id="title">Approval Center overview</title>
  <desc id="desc">Schematic of the Approval Center interface in MeshCentral.</desc>
  <rect width="1200" height="640" rx="18" fill="#f4f6f8"/>
  <rect x="0" y="0" width="1200" height="64" rx="18" fill="#123b63"/>
  <rect x="0" y="48" width="1200" height="16" fill="#123b63"/>
  <text x="28" y="41" fill="#fff" font-family="Arial, sans-serif" font-size="26" font-weight="700">MeshCentral</text>
  <rect x="0" y="64" width="92" height="576" fill="#e3edf7"/>
  <g fill="#2c7bd9">
    <rect x="22" y="95" width="48" height="48" rx="10"/>
    <rect x="22" y="160" width="48" height="48" rx="10" opacity=".42"/>
    <rect x="22" y="225" width="48" height="48" rx="10" opacity=".42"/>
    <rect x="22" y="290" width="48" height="48" rx="10" opacity=".42"/>
  </g>
  <path d="M34 120h24M46 108v24" stroke="#fff" stroke-width="4" stroke-linecap="round"/>
  <text x="122" y="112" fill="#1d2939" font-family="Arial, sans-serif" font-size="30" font-weight="700">Approval Center</text>
  <g font-family="Arial, sans-serif" font-size="16" font-weight="600">
    <rect x="122" y="136" width="112" height="40" rx="5" fill="#2f75c9"/><text x="149" y="162" fill="#fff">Overview</text>
    <rect x="240" y="136" width="150" height="40" rx="5" fill="#e5e7eb"/><text x="261" y="162" fill="#344054">Move Requests</text>
    <rect x="396" y="136" width="112" height="40" rx="5" fill="#e5e7eb"/><text x="416" y="162" fill="#344054">Commands</text>
    <rect x="514" y="136" width="128" height="40" rx="5" fill="#e5e7eb"/><text x="535" y="162" fill="#344054">My Defender</text>
    <rect x="648" y="136" width="94" height="40" rx="5" fill="#e5e7eb"/><text x="668" y="162" fill="#344054">Scripts</text>
    <rect x="748" y="136" width="96" height="40" rx="5" fill="#e5e7eb"/><text x="768" y="162" fill="#344054">Settings</text>
  </g>
  <g font-family="Arial, sans-serif">
    <g transform="translate(122 205)"><rect width="240" height="150" rx="12" fill="#fff" stroke="#d0d5dd"/><text x="20" y="34" fill="#1d2939" font-size="20" font-weight="700">Move requests</text><text x="20" y="67" fill="#667085" font-size="15">Pending</text><text x="192" y="68" fill="#e59a15" font-size="18" font-weight="700">0</text><text x="20" y="99" fill="#667085" font-size="15">Completed</text><text x="192" y="100" fill="#169b62" font-size="18" font-weight="700">0</text><text x="20" y="130" fill="#667085" font-size="14">Latest: Rejected</text></g>
    <g transform="translate(382 205)"><rect width="240" height="150" rx="12" fill="#fff" stroke="#d0d5dd"/><text x="20" y="34" fill="#1d2939" font-size="20" font-weight="700">Command requests</text><text x="20" y="67" fill="#667085" font-size="15">Pending</text><text x="192" y="68" fill="#e59a15" font-size="18" font-weight="700">0</text><text x="20" y="99" fill="#667085" font-size="15">Completed</text><text x="192" y="100" fill="#169b62" font-size="18" font-weight="700">0</text><text x="20" y="130" fill="#667085" font-size="14">Latest: Rejected</text></g>
    <g transform="translate(642 205)"><rect width="240" height="150" rx="12" fill="#fff" stroke="#d0d5dd"/><text x="20" y="34" fill="#1d2939" font-size="20" font-weight="700">My Defender</text><text x="20" y="67" fill="#667085" font-size="15">Pending</text><text x="192" y="68" fill="#e59a15" font-size="18" font-weight="700">0</text><text x="20" y="99" fill="#667085" font-size="15">Completed</text><text x="192" y="100" fill="#169b62" font-size="18" font-weight="700">0</text><text x="20" y="130" fill="#667085" font-size="14">Approval-controlled actions</text></g>
    <g transform="translate(902 205)"><rect width="240" height="150" rx="12" fill="#fff" stroke="#d0d5dd"/><text x="20" y="34" fill="#1d2939" font-size="20" font-weight="700">Script requests</text><text x="20" y="67" fill="#667085" font-size="15">Pending</text><text x="192" y="68" fill="#e59a15" font-size="18" font-weight="700">0</text><text x="20" y="99" fill="#667085" font-size="15">Completed</text><text x="192" y="100" fill="#169b62" font-size="18" font-weight="700">1</text><text x="20" y="130" fill="#667085" font-size="14">Latest: Completed</text></g>
  </g>
  <rect x="122" y="386" width="1020" height="204" rx="12" fill="#fff" stroke="#d0d5dd"/>
  <text x="146" y="423" fill="#1d2939" font-family="Arial, sans-serif" font-size="20" font-weight="700">Unified approval history</text>
  <rect x="146" y="444" width="972" height="38" rx="5" fill="#eef2f6"/>
  <g fill="#475467" font-family="Arial, sans-serif" font-size="14" font-weight="700"><text x="164" y="469">DateTime</text><text x="320" y="469">Type</text><text x="475" y="469">Requester</text><text x="628" y="469">Approver</text><text x="780" y="469">Status</text><text x="932" y="469">Actions</text></g>
  <g font-family="Arial, sans-serif" font-size="14" fill="#344054"><rect x="146" y="486" width="972" height="42" fill="#fff"/><text x="164" y="512">17.07.2026 00:15</text><text x="320" y="512">My Scripts</text><text x="475" y="512">admin</text><text x="628" y="512">admin</text><text x="780" y="512" fill="#168a59" font-weight="700">Completed</text><text x="932" y="512">View result</text><rect x="146" y="528" width="972" height="42" fill="#f8fafc"/><text x="164" y="554">16.07.2026 23:59</text><text x="320" y="554">Move Request</text><text x="475" y="554">admin</text><text x="628" y="554">admin</text><text x="780" y="554" fill="#b42318" font-weight="700">Rejected</text><text x="932" y="554">—</text></g>
</svg>
