<svg xmlns="http://www.w3.org/2000/svg" style="display:none">
  <symbol id="chevron-left" viewBox="0 0 24 24"><path d="m15 18-6-6 6-6"/></symbol>
  <symbol id="moon" viewBox="0 0 24 24"><path d="M20 15.5A8 8 0 1 1 8.5 4 6.5 6.5 0 0 0 20 15.5Z"/></symbol>
  <symbol id="home" viewBox="0 0 24 24"><path d="M3 11 12 3l9 8v10H3V11Z"/><path d="M9 21v-7h6v7"/></symbol>
  <symbol id="devices" viewBox="0 0 24 24"><rect x="3" y="4" width="18" height="13" rx="2"/><path d="M8 21h8M12 17v4"/></symbol>
  <symbol id="approval" viewBox="0 0 24 24"><path d="m4 12 5 5L20 6"/></symbol>
  <symbol id="automation" viewBox="0 0 24 24"><circle cx="12" cy="12" r="3"/><path d="M19.4 15a1.7 1.7 0 0 0 .3 1.9l.1.1-2.8 2.8-.1-.1a1.7 1.7 0 0 0-1.9-.3 1.7 1.7 0 0 0-1 1.6v.2h-4V21a1.7 1.7 0 0 0-1-1.6 1.7 1.7 0 0 0-1.9.3l-.1.1L4.2 17l.1-.1a1.7 1.7 0 0 0 .3-1.9A1.7 1.7 0 0 0 3 14H2.8v-4H3a1.7 1.7 0 0 0 1.6-1 1.7 1.7 0 0 0-.3-1.9L4.2 7 7 4.2l.1.1a1.7 1.7 0 0 0 1.9.3A1.7 1.7 0 0 0 10 3V2.8h4V3a1.7 1.7 0 0 0 1 1.6 1.7 1.7 0 0 0 1.9-.3l.1-.1L19.8 7l-.1.1a1.7 1.7 0 0 0-.3 1.9 1.7 1.7 0 0 0 1.6 1h.2v4H21a1.7 1.7 0 0 0-1.6 1Z"/></symbol>
  <symbol id="monitoring" viewBox="0 0 24 24"><path d="M3 12h4l2-5 4 10 2-5h6"/></symbol>
  <symbol id="assets" viewBox="0 0 24 24"><path d="m12 3 8 4.5v9L12 21l-8-4.5v-9L12 3Z"/><path d="m4 7.5 8 4.5 8-4.5M12 12v9"/></symbol>
  <symbol id="management" viewBox="0 0 24 24"><path d="M4 7h10M18 7h2M4 17h2M10 17h10M8 4v6M8 14v6M16 14v6M16 4v6"/></symbol>
  <symbol id="reports" viewBox="0 0 24 24"><path d="M5 20V10M12 20V4M19 20v-7M3 20h18"/></symbol>
  <symbol id="security" viewBox="0 0 24 24"><path d="M12 3 20 6v6c0 5-3.5 8-8 9-4.5-1-8-4-8-9V6l8-3Z"/><path d="M12 8v5M12 17h.01"/></symbol>
  <symbol id="settings" viewBox="0 0 24 24"><circle cx="12" cy="12" r="3"/><path d="M19.4 15a1.7 1.7 0 0 0 .3 1.9l.1.1-2.8 2.8-.1-.1a1.7 1.7 0 0 0-1.9-.3 1.7 1.7 0 0 0-1 1.6v.2h-4V21a1.7 1.7 0 0 0-1-1.6 1.7 1.7 0 0 0-1.9.3l-.1.1L4.2 17l.1-.1a1.7 1.7 0 0 0 .3-1.9A1.7 1.7 0 0 0 3 14H2.8v-4H3a1.7 1.7 0 0 0 1.6-1 1.7 1.7 0 0 0-.3-1.9L4.2 7 7 4.2l.1.1a1.7 1.7 0 0 0 1.9.3A1.7 1.7 0 0 0 10 3V2.8h4V3a1.7 1.7 0 0 0 1 1.6 1.7 1.7 0 0 0 1.9-.3l.1-.1L19.8 7l-.1.1a1.7 1.7 0 0 0-.3 1.9 1.7 1.7 0 0 0 1.6 1h.2v4H21a1.7 1.7 0 0 0-1.6 1Z"/></symbol>
  <symbol id="external-link" viewBox="0 0 24 24"><path d="M14 5h5v5M19 5l-8 8"/><path d="M18 13v6H5V6h6"/></symbol>
  <symbol id="overview-list" viewBox="0 0 24 24"><path d="M5 4h14v3H5zM5 10h14v3H5zM5 16h14v3H5z"/></symbol>
  <symbol id="move-requests" viewBox="0 0 24 24"><path d="M5 7h12l-3-3m3 3-3 3M19 17H7l3 3m-3-3 3-3"/></symbol>
  <symbol id="commands" viewBox="0 0 24 24"><rect x="3" y="5" width="18" height="14" rx="2"/><path d="m7 10 3 2-3 2m5 1h5"/></symbol>
  <symbol id="scripts" viewBox="0 0 24 24"><path d="M6 3h9l3 3v15H6z"/><path d="M9 11h6m-6 4h6"/></symbol>
  <symbol id="all" viewBox="0 0 24 24"><path d="M4 5h16v14H4z"/><path d="M8 9h8M8 13h8"/></symbol>
  <symbol id="pending" viewBox="0 0 24 24"><circle cx="12" cy="12" r="9"/><path d="M12 7v5l3 2"/></symbol>
  <symbol id="executing" viewBox="0 0 24 24"><circle cx="12" cy="12" r="9"/><path d="m10 8 6 4-6 4V8Z"/></symbol>
  <symbol id="approved" viewBox="0 0 24 24"><circle cx="12" cy="12" r="9"/><path d="m8 12 2.5 2.5L16.5 9"/></symbol>
  <symbol id="completed" viewBox="0 0 24 24"><path d="M4 5h16v14H4z"/><path d="m8 12 2.5 2.5L16 9"/></symbol>
  <symbol id="failed" viewBox="0 0 24 24"><circle cx="12" cy="12" r="9"/><path d="m9 9 6 6M15 9l-6 6"/></symbol>
  <symbol id="rejected" viewBox="0 0 24 24"><circle cx="12" cy="12" r="9"/><path d="m6 6 12 12"/></symbol>
</svg>